# Blender v2.79 (sub 0) OBJ File: 'Ladder.blend'
# www.blender.org
mtllib Ladder.mtl
o Cube.006_Cube.008
v 0.000000 0.000000 0.228284
v -0.028284 0.000000 0.200000
v 0.000000 0.000000 0.171716
v 0.028284 -0.000000 0.200000
v -0.000000 2.000000 0.228284
v -0.028284 2.000000 0.200000
v -0.000000 2.000000 0.171716
v 0.028284 2.000000 0.200000
v 0.000000 0.000000 -0.171716
v -0.028284 0.000000 -0.200000
v 0.000000 0.000000 -0.228284
v 0.028284 -0.000000 -0.200000
v -0.000000 2.000000 -0.171716
v -0.028284 2.000000 -0.200000
v -0.000000 2.000000 -0.228284
v 0.028284 2.000000 -0.200000
v -0.014142 0.625000 0.200000
v -0.014142 0.625000 -0.200000
v 0.000000 0.610858 -0.200000
v 0.000000 0.610858 0.200000
v 0.000000 0.639142 0.200000
v 0.000000 0.639142 -0.200000
v 0.014142 0.625000 -0.200000
v 0.014142 0.625000 0.200000
v -0.014142 0.125000 0.200000
v -0.014142 0.125000 -0.200000
v 0.000000 0.110858 -0.200000
v 0.000000 0.110858 0.200000
v 0.000000 0.139142 0.200000
v 0.000000 0.139142 -0.200000
v 0.014142 0.125000 -0.200000
v 0.014142 0.125000 0.200000
v -0.014142 0.875000 0.200000
v -0.014142 0.875000 -0.200000
v 0.000000 0.860858 -0.200000
v 0.000000 0.860858 0.200000
v 0.000000 0.889142 0.200000
v 0.000000 0.889142 -0.200000
v 0.014142 0.875000 -0.200000
v 0.014142 0.875000 0.200000
v -0.014142 0.375000 0.200000
v -0.014142 0.375000 -0.200000
v 0.000000 0.360858 -0.200000
v 0.000000 0.360858 0.200000
v 0.000000 0.389142 0.200000
v 0.000000 0.389142 -0.200000
v 0.014142 0.375000 -0.200000
v 0.014142 0.375000 0.200000
v -0.014142 1.875000 0.200000
v -0.014142 1.875000 -0.200000
v 0.000000 1.860858 -0.200000
v 0.000000 1.860858 0.200000
v 0.000000 1.889142 0.200000
v 0.000000 1.889142 -0.200000
v 0.014142 1.875000 -0.200000
v 0.014142 1.875000 0.200000
v -0.014142 1.125000 0.200000
v -0.014142 1.125000 -0.200000
v 0.000000 1.110858 -0.200000
v 0.000000 1.110858 0.200000
v 0.000000 1.139142 0.200000
v 0.000000 1.139142 -0.200000
v 0.014142 1.125000 -0.200000
v 0.014142 1.125000 0.200000
v -0.014142 1.375000 0.200000
v -0.014142 1.375000 -0.200000
v 0.000000 1.360858 -0.200000
v 0.000000 1.360858 0.200000
v -0.000000 1.389142 0.200000
v -0.000000 1.389142 -0.200000
v 0.014142 1.375000 -0.200000
v 0.014142 1.375000 0.200000
v -0.014142 1.625000 0.200000
v -0.014142 1.625000 -0.200000
v 0.000000 1.610858 -0.200000
v 0.000000 1.610858 0.200000
v 0.000000 1.639142 0.200000
v 0.000000 1.639142 -0.200000
v 0.014142 1.625000 -0.200000
v 0.014142 1.625000 0.200000
vt 0.000000 0.000000
vt 1.000000 0.000000
vt 1.000000 1.000000
vt 0.000000 1.000000
vt 0.000000 0.000000
vt 1.000000 0.000000
vt 1.000000 1.000000
vt 0.000000 1.000000
vt 0.000000 0.000000
vt 1.000000 0.000000
vt 1.000000 1.000000
vt 0.000000 1.000000
vt 0.000000 0.000000
vt 1.000000 0.000000
vt 1.000000 1.000000
vt 0.000000 1.000000
vt 0.000000 0.000000
vt 1.000000 0.000000
vt 1.000000 1.000000
vt 0.000000 1.000000
vt 0.000000 0.000000
vt 1.000000 0.000000
vt 1.000000 1.000000
vt 0.000000 1.000000
vt 0.000000 0.000000
vt 1.000000 0.000000
vt 1.000000 1.000000
vt 0.000000 1.000000
vt 0.000000 0.000000
vt 1.000000 0.000000
vt 1.000000 1.000000
vt 0.000000 1.000000
vt 0.000000 0.000000
vt 1.000000 0.000000
vt 1.000000 1.000000
vt 0.000000 1.000000
vt 0.000000 0.000000
vt 1.000000 0.000000
vt 1.000000 1.000000
vt 0.000000 1.000000
vt 0.000000 0.000000
vt 1.000000 0.000000
vt 1.000000 1.000000
vt 0.000000 1.000000
vt 0.000000 0.000000
vt 1.000000 0.000000
vt 1.000000 1.000000
vt 0.000000 1.000000
vt 0.000000 0.000000
vt 1.000000 0.000000
vt 1.000000 1.000000
vt 0.000000 1.000000
vt 0.000000 0.000000
vt 1.000000 0.000000
vt 1.000000 1.000000
vt 0.000000 1.000000
vt 0.000000 0.000000
vt 1.000000 0.000000
vt 1.000000 1.000000
vt 0.000000 1.000000
vt 0.000000 0.000000
vt 1.000000 0.000000
vt 1.000000 1.000000
vt 0.000000 1.000000
vt 0.000000 0.000000
vt 1.000000 0.000000
vt 1.000000 1.000000
vt 0.000000 1.000000
vt 0.000000 0.000000
vt 1.000000 0.000000
vt 1.000000 1.000000
vt 0.000000 1.000000
vt 0.000000 0.000000
vt 1.000000 0.000000
vt 1.000000 1.000000
vt 0.000000 1.000000
vt 0.000000 0.000000
vt 1.000000 0.000000
vt 1.000000 1.000000
vt 0.000000 1.000000
vt 0.000000 0.000000
vt 1.000000 0.000000
vt 1.000000 1.000000
vt 0.000000 1.000000
vt 0.000000 0.000000
vt 1.000000 0.000000
vt 1.000000 1.000000
vt 0.000000 1.000000
vt 0.000000 0.000000
vt 1.000000 0.000000
vt 1.000000 1.000000
vt 0.000000 1.000000
vt 0.000000 0.000000
vt 1.000000 0.000000
vt 1.000000 1.000000
vt 0.000000 1.000000
vt 0.000000 0.000000
vt 1.000000 0.000000
vt 1.000000 1.000000
vt 0.000000 1.000000
vt 0.000000 0.000000
vt 1.000000 0.000000
vt 1.000000 1.000000
vt 0.000000 1.000000
vt 0.000000 0.000000
vt 1.000000 0.000000
vt 1.000000 1.000000
vt 0.000000 1.000000
vt 0.000000 0.000000
vt 1.000000 0.000000
vt 1.000000 1.000000
vt 0.000000 1.000000
vt 0.000000 0.000000
vt 1.000000 0.000000
vt 1.000000 1.000000
vt 0.000000 1.000000
vt 0.000000 0.000000
vt 1.000000 0.000000
vt 1.000000 1.000000
vt 0.000000 1.000000
vt 0.000000 0.000000
vt 1.000000 0.000000
vt 1.000000 1.000000
vt 0.000000 1.000000
vt 0.000000 0.000000
vt 1.000000 0.000000
vt 1.000000 1.000000
vt 0.000000 1.000000
vt 0.000000 0.000000
vt 1.000000 0.000000
vt 1.000000 1.000000
vt 0.000000 1.000000
vt 0.000000 0.000000
vt 1.000000 0.000000
vt 1.000000 1.000000
vt 0.000000 1.000000
vt 0.000000 0.000000
vt 1.000000 0.000000
vt 1.000000 1.000000
vt 0.000000 1.000000
vt 0.000000 0.000000
vt 1.000000 0.000000
vt 1.000000 1.000000
vt 0.000000 1.000000
vt 0.000000 0.000000
vt 1.000000 0.000000
vt 1.000000 1.000000
vt 0.000000 1.000000
vt 0.000000 0.000000
vt 1.000000 0.000000
vt 1.000000 1.000000
vt 0.000000 1.000000
vt 0.000000 0.000000
vt 1.000000 0.000000
vt 1.000000 1.000000
vt 0.000000 1.000000
vt 0.000000 0.000000
vt 1.000000 0.000000
vt 1.000000 1.000000
vt 0.000000 1.000000
vt 0.000000 0.000000
vt 1.000000 0.000000
vt 1.000000 1.000000
vt 0.000000 1.000000
vt 0.000000 0.000000
vt 1.000000 0.000000
vt 1.000000 1.000000
vt 0.000000 1.000000
vt 0.000000 0.000000
vt 1.000000 0.000000
vt 1.000000 1.000000
vt 0.000000 1.000000
vt 0.000000 0.000000
vt 1.000000 0.000000
vt 1.000000 1.000000
vt 0.000000 1.000000
vt 0.000000 0.000000
vt 1.000000 0.000000
vt 1.000000 1.000000
vt 0.000000 1.000000
vt 0.000000 0.000000
vt 1.000000 0.000000
vt 1.000000 1.000000
vt 0.000000 1.000000
vt 0.000000 0.000000
vt 1.000000 0.000000
vt 1.000000 1.000000
vt 0.000000 1.000000
vt 0.000000 0.000000
vt 1.000000 0.000000
vt 1.000000 1.000000
vt 0.000000 1.000000
vt 0.000000 0.000000
vt 1.000000 0.000000
vt 1.000000 1.000000
vt 0.000000 1.000000
vt 0.000000 0.000000
vt 1.000000 0.000000
vt 1.000000 1.000000
vt 0.000000 1.000000
vn 0.0000 0.8165 0.5773
vn 0.0000 0.8165 -0.5773
vn -0.8165 0.0000 -0.5773
vn -0.8165 0.0000 0.5773
vn 0.8165 0.0000 -0.5773
vn 0.0000 -0.8165 -0.5773
vn 0.8165 0.0000 0.5773
vn 0.0000 -0.8165 0.5773
vn 0.0000 0.5773 0.8165
vn -0.8165 0.5773 0.0000
vn -0.8165 -0.5773 0.0000
vn 0.0000 -0.5773 0.8165
vn 0.0000 0.5773 -0.8165
vn 0.0000 -0.5773 -0.8165
vn 0.8165 0.5773 0.0000
vn 0.8165 -0.5773 0.0000
usemtl None
s 1
f 21/1/1 22/2/2 18/3/3 17/4/4
f 22/5/2 23/6/5 19/7/6 18/8/3
f 23/9/5 24/10/7 20/11/8 19/12/6
f 24/13/7 21/14/1 17/15/4 20/16/8
f 17/17/4 18/18/3 19/7/6 20/16/8
f 24/13/7 23/6/5 22/19/2 21/20/1
f 29/21/1 30/22/2 26/23/3 25/24/4
f 30/25/2 31/26/5 27/27/6 26/28/3
f 31/29/5 32/30/7 28/31/8 27/32/6
f 32/33/7 29/34/1 25/35/4 28/36/8
f 25/37/4 26/38/3 27/27/6 28/36/8
f 32/33/7 31/26/5 30/39/2 29/40/1
f 37/41/1 38/42/2 34/43/3 33/44/4
f 38/45/2 39/46/5 35/47/6 34/48/3
f 39/49/5 40/50/7 36/51/8 35/52/6
f 40/53/7 37/54/1 33/55/4 36/56/8
f 33/57/4 34/58/3 35/47/6 36/56/8
f 40/53/7 39/46/5 38/59/2 37/60/1
f 45/61/1 46/62/2 42/63/3 41/64/4
f 46/65/2 47/66/5 43/67/6 42/68/3
f 47/69/5 48/70/7 44/71/8 43/72/6
f 48/73/7 45/74/1 41/75/4 44/76/8
f 41/77/4 42/78/3 43/67/6 44/76/8
f 48/73/7 47/66/5 46/79/2 45/80/1
f 53/81/1 54/82/2 50/83/3 49/84/4
f 54/85/2 55/86/5 51/87/6 50/88/3
f 55/89/5 56/90/7 52/91/8 51/92/6
f 56/93/7 53/94/1 49/95/4 52/96/8
f 49/97/4 50/98/3 51/87/6 52/96/8
f 56/93/7 55/86/5 54/99/2 53/100/1
f 61/101/1 62/102/2 58/103/3 57/104/4
f 62/105/2 63/106/5 59/107/6 58/108/3
f 63/109/5 64/110/7 60/111/8 59/112/6
f 64/113/7 61/114/1 57/115/4 60/116/8
f 57/117/4 58/118/3 59/107/6 60/116/8
f 64/113/7 63/106/5 62/119/2 61/120/1
f 69/121/1 70/122/2 66/123/3 65/124/4
f 70/125/2 71/126/5 67/127/6 66/128/3
f 71/129/5 72/130/7 68/131/8 67/132/6
f 72/133/7 69/134/1 65/135/4 68/136/8
f 65/137/4 66/138/3 67/127/6 68/136/8
f 72/133/7 71/126/5 70/139/2 69/140/1
f 77/141/1 78/142/2 74/143/3 73/144/4
f 78/145/2 79/146/5 75/147/6 74/148/3
f 79/149/5 80/150/7 76/151/8 75/152/6
f 80/153/7 77/154/1 73/155/4 76/156/8
f 73/157/4 74/158/3 75/147/6 76/156/8
f 80/153/7 79/146/5 78/159/2 77/160/1
usemtl None_Ladder02.png
f 5/161/9 6/162/10 2/163/11 1/164/12
f 6/165/10 7/166/13 3/167/14 2/168/11
f 7/169/13 8/170/15 4/171/16 3/172/14
f 8/173/15 5/174/9 1/175/12 4/176/16
f 13/177/9 14/178/10 10/179/11 9/180/12
f 14/181/10 15/182/13 11/183/14 10/184/11
f 15/185/13 16/186/15 12/187/16 11/188/14
f 16/189/15 13/190/9 9/191/12 12/192/16
usemtl None_MetalBare0115_1_L.jpg
f 1/193/12 2/194/11 3/167/14 4/176/16
f 8/173/15 7/166/13 6/195/10 5/196/9
f 9/197/12 10/198/11 11/183/14 12/192/16
f 16/189/15 15/182/13 14/199/10 13/200/9
